<?xml version="1.0" standalone="no"?>
<!DOCTYPE svg PUBLIC "-//W3C//DTD SVG 20010904//EN"
 "http://www.w3.org/TR/2001/REC-SVG-20010904/DTD/svg10.dtd">
<svg version="1.0" xmlns="http://www.w3.org/2000/svg"
 width="1280.000000pt" height="972.000000pt" viewBox="0 0 1280.000000 972.000000"
 preserveAspectRatio="xMidYMid meet">
<g transform="translate(0.000000,972.000000) scale(0.100000,-0.100000)"
fill="#000000" stroke="none">
<path d="M8530 9188 l-1 -533 -212 219 -213 219 -374 -17 c-206 -9 -564 -26
-795 -36 -1569 -73 -2585 -119 -2694 -122 l-85 -3 -123 175 c-104 148 -127
175 -150 178 -25 2 -274 -20 -1413 -128 -341 -32 -1133 -107 -1810 -170 -478
-45 -623 -59 -625 -63 -1 -1 -10 -108 -19 -238 l-17 -236 121 -259 121 -259
172 10 c95 6 177 13 184 18 6 4 42 50 79 102 l68 95 151 0 150 0 144 -85 c79
-47 149 -85 155 -85 6 1 137 58 291 129 l280 127 3 -118 3 -118 32 0 c18 0 90
-5 160 -10 l128 -9 274 -111 c151 -60 280 -110 288 -110 9 0 63 28 123 62
l107 62 164 -84 c90 -47 167 -88 169 -93 3 -4 -22 -59 -55 -121 -34 -63 -61
-118 -61 -123 0 -4 90 -64 201 -132 l200 -123 -3 -154 c-2 -85 -1 -154 2 -154
12 0 769 416 986 541 l231 134 121 137 c118 133 123 137 174 147 140 28 439
81 454 81 9 0 187 -98 396 -217 l379 -218 79 -95 c44 -52 259 -269 478 -481
l398 -387 115 9 c63 4 130 8 151 8 l36 1 186 -316 185 -316 58 -215 57 -215
-38 -208 c-31 -174 -48 -237 -102 -391 l-65 -184 6 -185 c5 -141 10 -191 22
-209 29 -45 185 -241 192 -241 3 0 37 30 74 68 l67 68 0 112 0 112 28 -6 c15
-3 61 -10 102 -17 l75 -12 63 -95 c34 -52 62 -103 62 -112 0 -9 -16 -88 -35
-175 l-34 -158 -97 -90 -97 -90 52 -125 52 -125 149 -150 c143 -143 156 -160
302 -385 l153 -235 135 -8 c74 -4 172 -10 218 -13 l82 -6 0 -156 0 -157 248
-277 247 -277 57 -130 c54 -123 58 -138 74 -274 l17 -144 239 -57 240 -57 159
-121 159 -122 192 -258 c107 -144 198 -258 207 -259 9 0 75 -8 146 -17 l130
-17 3 -153 c1 -83 6 -152 10 -152 4 0 136 43 294 96 l286 95 189 141 c103 78
190 142 192 144 2 2 -18 140 -44 308 l-48 304 145 189 c79 104 148 194 152
201 4 6 -32 134 -78 285 l-86 274 86 295 85 296 -145 288 c-143 286 -147 293
-400 657 l-255 367 -132 398 -131 398 -154 99 c-85 54 -158 103 -163 109 -4 6
-28 113 -53 238 l-45 227 29 219 29 220 -227 318 c-125 176 -235 328 -245 338
-10 11 -96 52 -191 91 l-173 72 -46 155 c-26 86 -50 162 -55 169 -4 8 -150
184 -322 392 l-314 378 6 217 c4 119 9 242 12 273 l6 56 -128 154 c-70 85
-131 159 -135 165 -5 6 -22 96 -37 200 l-28 189 -77 115 -76 115 -23 168 c-17
127 -26 168 -38 172 -17 5 -743 135 -753 135 -4 0 -7 -240 -7 -532z m3170
-9133 c0 -8 -44 -23 -53 -18 -14 8 4 23 29 23 13 0 24 -2 24 -5z"/>
</g>
</svg>
